<?xml version="1.0" encoding="UTF-8" standalone="no"?><!DOCTYPE svg PUBLIC "-//W3C//DTD SVG 1.1//EN" "http://www.w3.org/Graphics/SVG/1.1/DTD/svg11.dtd"><svg width="100%" height="100%" viewBox="0 0 200 200" version="1.1" xmlns="http://www.w3.org/2000/svg" xmlns:xlink="http://www.w3.org/1999/xlink" xml:space="preserve" xmlns:serif="http://www.serif.com/" style="fill-rule:evenodd;clip-rule:evenodd;stroke-linejoin:round;stroke-miterlimit:2;"><path d="M139.274,46.481c1.168,0.662 2.183,1.629 2.916,2.866c3.481,5.875 6.863,11.623 8.789,18.577c3.946,14.242 -1.187,32.98 -8.833,44.943c-7.012,10.972 -18.167,20.79 -30.586,24.952c-18.618,6.238 -42.664,-1.593 -54.492,-16.73c-3.58,-4.581 -6.523,-9.422 -8.316,-15.023c-1.771,-5.537 -2.668,-11.867 -2.021,-17.672c3.53,-31.682 30.539,-51.628 61.495,-51.003c10.715,0.216 22.525,2.132 31.048,9.09Zm-9.948,12.538c-5.753,-4.893 -14.078,-5.483 -21.423,-5.631c-22.6,-0.457 -42.693,13.648 -45.271,36.778c-0.404,3.625 0.253,7.566 1.359,11.024c1.205,3.766 3.278,6.968 5.685,10.048c7.994,10.231 24.216,15.626 36.8,11.41c9.069,-3.039 17.068,-10.385 22.188,-18.398c5.473,-8.563 9.721,-21.859 6.896,-32.054c-1.365,-4.927 -3.768,-9.035 -6.234,-13.177Z" style="fill:#34923d;"/><path d="M104.378,113.21c-3.939,-0.496 -6.988,-3.862 -6.988,-7.934c0,-2.343 0.827,-3.986 1.791,-5.208c1.243,-1.576 2.939,-2.674 5.169,-3.043c1.123,-0.186 2.619,-0.182 4.269,0.353c1.531,0.496 3.788,1.935 4.198,2.22c3.194,2.226 6.634,3.942 9.954,5.969c9.257,5.651 17.983,14.567 26.194,21.678c2.692,2.331 5.41,4.63 8.258,6.77c0.022,0.017 3.419,2.895 4.032,3.472c3.144,2.965 2.591,6.193 2.566,6.519c-0.157,2.027 -0.967,3.581 -2.09,4.801c-1.233,1.34 -3.047,2.583 -5.888,2.583c-2.186,0 -4.169,-0.879 -5.612,-2.303l-2.84,-2.448c-3.065,-2.313 -5.999,-4.786 -8.901,-7.299c-7.572,-6.559 -15.518,-14.905 -24.056,-20.117c-3.352,-2.046 -6.801,-3.828 -10.056,-6.013Zm43.49,29.562l0.001,0.004l0.004,-0.053l-0.005,0.049Zm0.037,-0.374l-0.005,0.056l0.02,-0.162l-0.015,0.106Zm1.726,-4.044c-0.837,1.016 -1.454,2.25 -1.686,3.769c0.225,-1.414 0.821,-2.705 1.686,-3.769Zm5.783,-2.952c-2.595,0.116 -4.287,1.3 -5.456,2.571l-0.026,0.03c1.373,-1.506 3.314,-2.487 5.482,-2.601Zm-42.212,-28.403l-0.029,0.124l0.011,-0.04l0.018,-0.084Zm0.093,-0.49l-0.059,0.328l0.019,-0.087l0.04,-0.241Zm0.004,-0.021c0.059,-0.379 0.091,-0.782 0.091,-1.212c0,0.412 -0.031,0.816 -0.091,1.212Z" style="fill:#34923d;"/></svg>